<mxfile host="65bd71144e">
    <diagram id="LxM9ctAUyj70lWpZkFoi" name="Page-1">
        <mxGraphModel dx="706" dy="602" grid="1" gridSize="10" guides="1" tooltips="1" connect="1" arrows="1" fold="1" page="1" pageScale="1" pageWidth="827" pageHeight="1169" math="0" shadow="0">
            <root>
                <mxCell id="0"/>
                <mxCell id="1" parent="0"/>
                <mxCell id="2" value="&lt;font size=&quot;3&quot;&gt;Start&lt;/font&gt;" style="ellipse;whiteSpace=wrap;html=1;" vertex="1" parent="1">
                    <mxGeometry x="334" y="20" width="160" height="60" as="geometry"/>
                </mxCell>
                <mxCell id="3" value="array&lt;br&gt;newarray&lt;br&gt;count = 0&lt;br&gt;i = 0" style="shape=parallelogram;perimeter=parallelogramPerimeter;whiteSpace=wrap;html=1;fixedSize=1;fontSize=14;" vertex="1" parent="1">
                    <mxGeometry x="334" y="120" width="166" height="80" as="geometry"/>
                </mxCell>
                <mxCell id="4" value="" style="endArrow=classic;html=1;fontSize=14;" edge="1" parent="1">
                    <mxGeometry width="50" height="50" relative="1" as="geometry">
                        <mxPoint x="420" y="80" as="sourcePoint"/>
                        <mxPoint x="420" y="120" as="targetPoint"/>
                    </mxGeometry>
                </mxCell>
                <mxCell id="7" value="" style="endArrow=classic;html=1;fontSize=14;" edge="1" parent="1">
                    <mxGeometry width="50" height="50" relative="1" as="geometry">
                        <mxPoint x="416.55" y="200" as="sourcePoint"/>
                        <mxPoint x="416.55" y="240" as="targetPoint"/>
                    </mxGeometry>
                </mxCell>
                <mxCell id="8" value="i &amp;lt; array.lenght" style="rhombus;whiteSpace=wrap;html=1;fontSize=14;" vertex="1" parent="1">
                    <mxGeometry x="340" y="240" width="154" height="90" as="geometry"/>
                </mxCell>
                <mxCell id="10" value="" style="endArrow=classic;html=1;fontSize=14;" edge="1" parent="1">
                    <mxGeometry relative="1" as="geometry">
                        <mxPoint x="494" y="284.55" as="sourcePoint"/>
                        <mxPoint x="560" y="285" as="targetPoint"/>
                    </mxGeometry>
                </mxCell>
                <mxCell id="12" value="No" style="text;html=1;align=center;verticalAlign=middle;resizable=0;points=[];autosize=1;strokeColor=none;fillColor=none;fontSize=14;" vertex="1" parent="1">
                    <mxGeometry x="505" y="260" width="30" height="20" as="geometry"/>
                </mxCell>
                <mxCell id="13" value="" style="endArrow=classic;html=1;fontSize=14;entryX=0.698;entryY=-0.051;entryDx=0;entryDy=0;entryPerimeter=0;" edge="1" parent="1">
                    <mxGeometry width="50" height="50" relative="1" as="geometry">
                        <mxPoint x="416.55" y="330" as="sourcePoint"/>
                        <mxPoint x="417.31" y="365.91999999999985" as="targetPoint"/>
                    </mxGeometry>
                </mxCell>
                <mxCell id="16" value="array[i].lenght &amp;lt; 3" style="rhombus;whiteSpace=wrap;html=1;fontSize=14;" vertex="1" parent="1">
                    <mxGeometry x="340" y="360" width="154" height="90" as="geometry"/>
                </mxCell>
                <mxCell id="22" value="" style="endArrow=classic;html=1;fontSize=14;exitX=0;exitY=0.5;exitDx=0;exitDy=0;entryX=0;entryY=0.5;entryDx=0;entryDy=0;" edge="1" parent="1" source="16" target="8">
                    <mxGeometry relative="1" as="geometry">
                        <mxPoint x="180" y="390" as="sourcePoint"/>
                        <mxPoint x="280" y="390" as="targetPoint"/>
                        <Array as="points">
                            <mxPoint x="230" y="405"/>
                            <mxPoint x="230" y="285"/>
                        </Array>
                    </mxGeometry>
                </mxCell>
                <mxCell id="24" value="Yes" style="text;html=1;align=center;verticalAlign=middle;resizable=0;points=[];autosize=1;strokeColor=none;fillColor=none;fontSize=14;" vertex="1" parent="1">
                    <mxGeometry x="410" y="330" width="40" height="20" as="geometry"/>
                </mxCell>
                <mxCell id="25" value="newarrai[count] = arrai[i]&lt;br&gt;count++&lt;br&gt;i++" style="rounded=0;whiteSpace=wrap;html=1;fontSize=14;" vertex="1" parent="1">
                    <mxGeometry x="141" y="310" width="190" height="60" as="geometry"/>
                </mxCell>
                <mxCell id="33" style="edgeStyle=none;html=1;entryX=0.5;entryY=0;entryDx=0;entryDy=0;fontSize=14;exitX=1;exitY=0.5;exitDx=0;exitDy=0;" edge="1" parent="1" source="26" target="32">
                    <mxGeometry relative="1" as="geometry">
                        <Array as="points">
                            <mxPoint x="740" y="290"/>
                        </Array>
                    </mxGeometry>
                </mxCell>
                <mxCell id="26" value="newarray" style="shape=document;whiteSpace=wrap;html=1;boundedLbl=1;fontSize=14;" vertex="1" parent="1">
                    <mxGeometry x="560" y="250" width="120" height="80" as="geometry"/>
                </mxCell>
                <mxCell id="32" value="&lt;font size=&quot;3&quot;&gt;End&lt;/font&gt;" style="ellipse;whiteSpace=wrap;html=1;" vertex="1" parent="1">
                    <mxGeometry x="660" y="350" width="160" height="60" as="geometry"/>
                </mxCell>
                <mxCell id="34" value="Yes" style="text;html=1;align=center;verticalAlign=middle;resizable=0;points=[];autosize=1;strokeColor=none;fillColor=none;fontSize=14;" vertex="1" parent="1">
                    <mxGeometry x="250" y="380" width="40" height="20" as="geometry"/>
                </mxCell>
                <mxCell id="35" value="" style="endArrow=classic;html=1;fontSize=14;exitX=0.5;exitY=1;exitDx=0;exitDy=0;entryX=0.5;entryY=0;entryDx=0;entryDy=0;" edge="1" parent="1" source="16" target="36">
                    <mxGeometry width="50" height="50" relative="1" as="geometry">
                        <mxPoint x="420" y="530" as="sourcePoint"/>
                        <mxPoint x="420" y="490" as="targetPoint"/>
                        <Array as="points"/>
                    </mxGeometry>
                </mxCell>
                <mxCell id="36" value="i++" style="rounded=0;whiteSpace=wrap;html=1;fontSize=14;" vertex="1" parent="1">
                    <mxGeometry x="354" y="490" width="120" height="60" as="geometry"/>
                </mxCell>
                <mxCell id="38" value="" style="endArrow=classic;html=1;fontSize=14;entryX=0.5;entryY=0;entryDx=0;entryDy=0;" edge="1" parent="1" target="8">
                    <mxGeometry width="50" height="50" relative="1" as="geometry">
                        <mxPoint x="350" y="520" as="sourcePoint"/>
                        <mxPoint x="480" y="260" as="targetPoint"/>
                        <Array as="points">
                            <mxPoint x="120" y="520"/>
                            <mxPoint x="120" y="240"/>
                        </Array>
                    </mxGeometry>
                </mxCell>
                <mxCell id="39" value="No" style="text;html=1;align=center;verticalAlign=middle;resizable=0;points=[];autosize=1;strokeColor=none;fillColor=none;fontSize=14;" vertex="1" parent="1">
                    <mxGeometry x="425" y="460" width="30" height="20" as="geometry"/>
                </mxCell>
            </root>
        </mxGraphModel>
    </diagram>
</mxfile>